<svg version="1.1" id="Capa_1" xmlns="http://www.w3.org/2000/svg" xmlns:xlink="http://www.w3.org/1999/xlink" x="0px" y="0px" viewBox="0 0 512 512" style="enable-background:new 0 0 512 512;" xml:space="preserve">
<g>
	<g>
		
			<polyline style="fill:none;stroke:#000000;stroke-width:15;stroke-linecap:round;stroke-linejoin:round;stroke-miterlimit:10;" points="&#10;&#9;&#9;&#9;222.68,223.423 222.68,293.154 270.39,320.7 &#9;&#9;"/>
		<g>
			<g>
				
					<line style="fill:none;stroke:#000000;stroke-width:15;stroke-linecap:round;stroke-linejoin:round;stroke-miterlimit:10;" x1="222.68" y1="183.053" x2="222.68" y2="186.605"/>
				
					<line style="fill:none;stroke:#000000;stroke-width:15;stroke-linecap:round;stroke-linejoin:round;stroke-miterlimit:10;" x1="222.68" y1="399.704" x2="222.68" y2="403.256"/>
			</g>
			<g>
				
					<line style="fill:none;stroke:#000000;stroke-width:15;stroke-linecap:round;stroke-linejoin:round;stroke-miterlimit:10;" x1="329.229" y1="293.154" x2="332.781" y2="293.154"/>
			</g>
			<g>
				
					<line style="fill:none;stroke:#000000;stroke-width:15;stroke-linecap:round;stroke-linejoin:round;stroke-miterlimit:10;" x1="167.629" y1="197.804" x2="169.405" y2="200.879"/>
				
					<line style="fill:none;stroke:#000000;stroke-width:15;stroke-linecap:round;stroke-linejoin:round;stroke-miterlimit:10;" x1="275.955" y1="385.429" x2="277.73" y2="388.505"/>
			</g>
			<g>
				
					<line style="fill:none;stroke:#000000;stroke-width:15;stroke-linecap:round;stroke-linejoin:round;stroke-miterlimit:10;" x1="127.329" y1="238.104" x2="130.405" y2="239.879"/>
				
					<line style="fill:none;stroke:#000000;stroke-width:15;stroke-linecap:round;stroke-linejoin:round;stroke-miterlimit:10;" x1="314.954" y1="346.429" x2="318.03" y2="348.205"/>
			</g>
		</g>
		<g>
			<g>
				
					<polyline style="fill:none;stroke:#000000;stroke-width:15;stroke-linecap:round;stroke-linejoin:round;stroke-miterlimit:10;" points="&#10;&#9;&#9;&#9;&#9;&#9;313.367,65.112 328.936,80.681 353.095,56.522 &#9;&#9;&#9;&#9;"/>
				
					<line style="fill:none;stroke:#000000;stroke-width:15;stroke-linecap:round;stroke-linejoin:round;stroke-miterlimit:10;" x1="381.011" y1="70.481" x2="462.615" y2="70.481"/>
			</g>
			<g>
				
					<polyline style="fill:none;stroke:#000000;stroke-width:15;stroke-linecap:round;stroke-linejoin:round;stroke-miterlimit:10;" points="&#10;&#9;&#9;&#9;&#9;&#9;313.367,123.929 328.936,139.498 353.095,115.339 &#9;&#9;&#9;&#9;"/>
				
					<line style="fill:none;stroke:#000000;stroke-width:15;stroke-linecap:round;stroke-linejoin:round;stroke-miterlimit:10;" x1="381.011" y1="129.298" x2="462.615" y2="129.298"/>
			</g>
			<g>
				
					<polyline style="fill:none;stroke:#000000;stroke-width:15;stroke-linecap:round;stroke-linejoin:round;stroke-miterlimit:10;" points="&#10;&#9;&#9;&#9;&#9;&#9;313.367,183.649 328.936,199.218 353.095,175.059 &#9;&#9;&#9;&#9;"/>
				
					<line style="fill:none;stroke:#000000;stroke-width:15;stroke-linecap:round;stroke-linejoin:round;stroke-miterlimit:10;" x1="381.011" y1="189.018" x2="462.615" y2="189.018"/>
			</g>
		</g>
		<g>
			<g>
				
					<polyline style="fill:none;stroke:#000000;stroke-width:15;stroke-linecap:round;stroke-linejoin:round;stroke-miterlimit:10;" points="&#10;&#9;&#9;&#9;&#9;&#9;114.391,378.519 131.763,378.519 131.763,459.795 &#9;&#9;&#9;&#9;"/>
			</g>
			<g>
				<path style="fill:none;stroke:#000000;stroke-width:15;stroke-linecap:round;stroke-linejoin:round;stroke-miterlimit:10;" d="&#10;&#9;&#9;&#9;&#9;&#9;M47.552,394.329c1.877-9.557,10.3-16.766,20.407-16.766c11.486,0,20.797,9.311,20.797,20.797&#10;&#9;&#9;&#9;&#9;&#9;c0,11.486-9.311,20.797-20.797,20.797"/>
				<path style="fill:none;stroke:#000000;stroke-width:15;stroke-linecap:round;stroke-linejoin:round;stroke-miterlimit:10;" d="&#10;&#9;&#9;&#9;&#9;&#9;M67.958,419.157c11.486,0,20.797,9.311,20.797,20.797c0,11.486-9.311,20.797-20.797,20.797&#10;&#9;&#9;&#9;&#9;&#9;c-10.501,0-19.185-7.783-20.596-17.896c-0.132-0.948-0.201-1.916-0.201-2.901"/>
			</g>
		</g>
		
			<line style="fill:none;stroke:#000000;stroke-width:15;stroke-linejoin:round;stroke-miterlimit:10;" x1="7.5" y1="338.195" x2="171.424" y2="338.195"/>
		<path style="fill:none;stroke:#000000;stroke-width:15;stroke-linejoin:round;stroke-miterlimit:10;" d="M171.424,425.453&#10;&#9;&#9;&#9;c15.898,6.164,33.181,9.551,51.256,9.551c78.342,0,141.85-63.508,141.85-141.85c0-17.319-3.109-33.911-8.791-49.254"/>
		<path style="fill:none;stroke:#000000;stroke-width:15;stroke-linejoin:round;stroke-miterlimit:10;" d="M271.481,159.923&#10;&#9;&#9;&#9;c-15.216-5.575-31.654-8.618-48.802-8.618c-75.879,0-137.843,59.58-141.662,134.51"/>
		<path style="fill:none;stroke:#000000;stroke-width:15;stroke-linecap:round;stroke-linejoin:round;stroke-miterlimit:10;" d="&#10;&#9;&#9;&#9;M271.481,85.835V218.9c0,13.807,11.193,25,25,25H479.5c13.807,0,25-11.193,25-25V35.881c0-13.807-11.193-25-25-25H296.481&#10;&#9;&#9;&#9;c-13.807,0-25,11.193-25,25v14.954"/>
		<path style="fill:none;stroke:#000000;stroke-width:15;stroke-linecap:round;stroke-linejoin:round;stroke-miterlimit:10;" d="&#10;&#9;&#9;&#9;M7.5,430.712v45.406c0,13.807,11.193,25,25,25h113.924c13.807,0,25-11.193,25-25V310.814c0-13.807-11.193-25-25-25H32.5&#10;&#9;&#9;&#9;c-13.807,0-25,11.193-25,25v84.898"/>
		<path style="fill:none;stroke:#000000;stroke-width:15;stroke-linecap:round;stroke-linejoin:round;stroke-miterlimit:10;" d="&#10;&#9;&#9;&#9;M171.424,470.955c16.277,4.684,33.472,7.2,51.256,7.2c47.764,0,91.298-18.104,124.121-47.821"/>
		<path style="fill:none;stroke:#000000;stroke-width:15;stroke-linejoin:round;stroke-miterlimit:10;" d="M271.481,114.673&#10;&#9;&#9;&#9;c-15.549-4.242-31.908-6.519-48.802-6.519c-99.713,0-180.986,78.892-184.842,177.66"/>
		<path style="fill:none;stroke:#000000;stroke-width:15;stroke-linecap:round;stroke-linejoin:round;stroke-miterlimit:10;" d="&#10;&#9;&#9;&#9;M370.441,404.476c23.373-30.975,37.239-69.528,37.239-111.322c0-17.057-2.32-33.571-6.641-49.254"/>
	</g>
</g>
<g>
</g>
<g>
</g>
<g>
</g>
<g>
</g>
<g>
</g>
<g>
</g>
<g>
</g>
<g>
</g>
<g>
</g>
<g>
</g>
<g>
</g>
<g>
</g>
<g>
</g>
<g>
</g>
<g>
</g>
</svg>