<?xml version="1.0" encoding="UTF-8" standalone="no"?>
<!-- Created with Inkscape (http://www.inkscape.org/) -->
<svg xmlns="http://www.w3.org/2000/svg" xmlns:svg="http://www.w3.org/2000/svg" version="1.1" id="svg5334" width="682.66669" height="682.66669" viewBox="0 0 682.66669 682.66669">
  <defs id="defs5338">
    <clipPath clipPathUnits="userSpaceOnUse" id="clipPath5348">
      <path d="M 0,512 H 512 V 0 H 0 Z" id="path5346"/>
    </clipPath>
  </defs>
  <mask id="custom"><rect id="bg" x="0" y="0" width="100%" height="100%" fill="white"/><g transform="matrix(1.3333333,0,0,-1.3333333,0,682.66667)"/></mask><g mask="url(#custom)"><g id="g5340" transform="matrix(1.3333333,0,0,-1.3333333,0,682.66667)">
    <g id="g5342">
      <g id="g5344" clip-path="url(#clipPath5348)">
        <g id="g5350" transform="translate(400.5508,315.7559)">
          <path d="m 0,0 h -49.34 c -8.719,0 -15.852,-7.134 -15.852,-15.853 0,-8.718 7.133,-15.851 15.852,-15.851 H 0 c 8.718,0 15.852,7.133 15.852,15.851 C 15.852,-7.134 8.718,0 0,0 Z" style="fill:none;stroke:#000000;stroke-width:15;stroke-linecap:round;stroke-linejoin:round;stroke-miterlimit:10;stroke-dasharray:none;stroke-opacity:1" id="path5352"/>
        </g>
        <path d="m 365.601,235.41 h 20.56 v 62.903 h -20.56 z" style="fill:none;stroke:#000000;stroke-width:15;stroke-linecap:round;stroke-linejoin:round;stroke-miterlimit:10;stroke-dasharray:none;stroke-opacity:1" id="path5354"/>
        <g id="g5356" transform="translate(297.332,38.4902)">
          <path d="m 0,0 c 53.322,-43.381 131.715,-35.322 175.096,17.999 43.382,53.322 35.322,131.716 -17.999,175.097 -53.323,43.381 -131.715,35.322 -175.096,-18 C -61.38,121.773 -53.322,43.381 0,0 Z" style="fill:none;stroke:#000000;stroke-width:15;stroke-linecap:round;stroke-linejoin:round;stroke-miterlimit:10;stroke-dasharray:670, 30;stroke-dashoffset:0;stroke-opacity:1" id="path5358"/>
        </g>
        <g id="g5360" transform="translate(456.7529,194.9844)">
          <path d="m 0,0 c -33.107,44.665 -96.155,54.033 -140.819,20.926 -44.665,-33.108 -54.034,-96.155 -20.926,-140.82 33.108,-44.664 96.155,-54.033 140.819,-20.925 C 23.739,-107.711 33.107,-44.664 0,0 Z" style="fill:none;stroke:#000000;stroke-width:15;stroke-linecap:round;stroke-linejoin:round;stroke-miterlimit:10;stroke-dasharray:none;stroke-opacity:1" id="path5362"/>
        </g>
        <g id="g5364" transform="translate(375.96,120.5498)">
          <path d="m 0,0 c 3.115,0 5.989,0.96 8.545,2.854 3.982,2.953 5.298,6.798 5.7,9.505 0.402,2.707 0.262,6.77 -2.69,10.753 -3.924,5.293 -9.498,5.865 -11.714,5.865 -3.114,0 -5.989,-0.961 -8.544,-2.855 -3.984,-2.952 -5.299,-6.799 -5.701,-9.506 -0.403,-2.706 -0.262,-6.768 2.69,-10.752 C -7.79,0.571 -2.215,0 0,0 Z" style="fill:none;stroke:#000000;stroke-width:15;stroke-linecap:round;stroke-linejoin:round;stroke-miterlimit:10;stroke-dasharray:none;stroke-opacity:1" id="path5366"/>
        </g>
        <g id="g5368" transform="translate(375.8809,215.4482)">
          <path d="M 0,0 V -16.311" style="fill:none;stroke:#000000;stroke-width:15;stroke-linecap:round;stroke-linejoin:round;stroke-miterlimit:10;stroke-dasharray:560, 30;stroke-dashoffset:0;stroke-opacity:1" id="path5370"/>
        </g>
        <g id="g5372" transform="translate(416.0859,204.6748)">
          <path d="M 0,0 -8.155,-14.125" style="fill:none;stroke:#000000;stroke-width:15;stroke-linecap:round;stroke-linejoin:round;stroke-miterlimit:10;stroke-dasharray:560, 30;stroke-dashoffset:0;stroke-opacity:1" id="path5374"/>
        </g>
        <g id="g5376" transform="translate(445.5176,175.2432)">
          <path d="M 0,0 -14.125,-8.155" style="fill:none;stroke:#000000;stroke-width:15;stroke-linecap:round;stroke-linejoin:round;stroke-miterlimit:10;stroke-dasharray:560, 30;stroke-dashoffset:0;stroke-opacity:1" id="path5378"/>
        </g>
        <g id="g5380" transform="translate(456.291,135.0381)">
          <path d="M 0,0 H -16.311" style="fill:none;stroke:#000000;stroke-width:15;stroke-linecap:round;stroke-linejoin:round;stroke-miterlimit:10;stroke-dasharray:560, 30;stroke-dashoffset:0;stroke-opacity:1" id="path5382"/>
        </g>
        <g id="g5384" transform="translate(445.5176,94.833)">
          <path d="M 0,0 -14.125,8.154" style="fill:none;stroke:#000000;stroke-width:15;stroke-linecap:round;stroke-linejoin:round;stroke-miterlimit:10;stroke-dasharray:560, 30;stroke-dashoffset:0;stroke-opacity:1" id="path5386"/>
        </g>
        <g id="g5388" transform="translate(416.0859,65.4004)">
          <path d="M 0,0 -8.155,14.125" style="fill:none;stroke:#000000;stroke-width:15;stroke-linecap:round;stroke-linejoin:round;stroke-miterlimit:10;stroke-dasharray:560, 30;stroke-dashoffset:0;stroke-opacity:1" id="path5390"/>
        </g>
        <g id="g5392" transform="translate(375.8809,54.6279)">
          <path d="M 0,0 V 16.31" style="fill:none;stroke:#000000;stroke-width:15;stroke-linecap:round;stroke-linejoin:round;stroke-miterlimit:10;stroke-dasharray:560, 30;stroke-dashoffset:0;stroke-opacity:1" id="path5394"/>
        </g>
        <g id="g5396" transform="translate(335.6758,65.4004)">
          <path d="M 0,0 8.154,14.125" style="fill:none;stroke:#000000;stroke-width:15;stroke-linecap:round;stroke-linejoin:round;stroke-miterlimit:10;stroke-dasharray:560, 30;stroke-dashoffset:0;stroke-opacity:1" id="path5398"/>
        </g>
        <g id="g5400" transform="translate(306.2432,94.833)">
          <path d="M 0,0 14.125,8.154" style="fill:none;stroke:#000000;stroke-width:15;stroke-linecap:round;stroke-linejoin:round;stroke-miterlimit:10;stroke-dasharray:560, 30;stroke-dashoffset:0;stroke-opacity:1" id="path5402"/>
        </g>
        <g id="g5404" transform="translate(295.4697,135.0381)">
          <path d="M 0,0 H 16.311" style="fill:none;stroke:#000000;stroke-width:15;stroke-linecap:round;stroke-linejoin:round;stroke-miterlimit:10;stroke-dasharray:560, 30;stroke-dashoffset:0;stroke-opacity:1" id="path5406"/>
        </g>
        <g id="g5408" transform="translate(306.2432,175.2432)">
          <path d="M 0,0 14.125,-8.155" style="fill:none;stroke:#000000;stroke-width:15;stroke-linecap:round;stroke-linejoin:round;stroke-miterlimit:10;stroke-dasharray:560, 30;stroke-dashoffset:0;stroke-opacity:1" id="path5410"/>
        </g>
        <g id="g5412" transform="translate(335.6758,204.6748)">
          <path d="M 0,0 8.154,-14.125" style="fill:none;stroke:#000000;stroke-width:15;stroke-linecap:round;stroke-linejoin:round;stroke-miterlimit:10;stroke-dasharray:560, 30;stroke-dashoffset:0;stroke-opacity:1" id="path5414"/>
        </g>
        <g id="g5416" transform="translate(384.7441,147.2588)">
          <path d="M 0,0 11.251,17.561" style="fill:none;stroke:#000000;stroke-width:15;stroke-linecap:round;stroke-linejoin:round;stroke-miterlimit:10;stroke-dasharray:none;stroke-opacity:1" id="path5418"/>
        </g>
        <g id="g5420" transform="translate(284.4521,451.7852)">
          <path d="M 0,0 H -228.404" style="fill:none;stroke:#000000;stroke-width:15;stroke-linecap:round;stroke-linejoin:round;stroke-miterlimit:10;stroke-dasharray:none;stroke-opacity:1" id="path5422"/>
        </g>
        <g id="g5424" transform="translate(56.0483,414.3223)">
          <path d="M 0,0 H 166.783" style="fill:none;stroke:#000000;stroke-width:15;stroke-linecap:round;stroke-linejoin:round;stroke-miterlimit:10;stroke-dasharray:68, 30;stroke-dashoffset:0;stroke-opacity:1" id="path5426"/>
        </g>
        <g id="g5428" transform="translate(56.0483,334.4873)">
          <path d="M 0,0 H 228.404" style="fill:none;stroke:#000000;stroke-width:15;stroke-linecap:round;stroke-linejoin:round;stroke-miterlimit:10;stroke-dasharray:175, 30;stroke-dashoffset:0;stroke-opacity:1" id="path5430"/>
        </g>
        <g id="g5432" transform="translate(56.0483,297.0244)">
          <path d="M 0,0 H 65.101" style="fill:none;stroke:#000000;stroke-width:15;stroke-linecap:round;stroke-linejoin:round;stroke-miterlimit:10;stroke-dasharray:none;stroke-opacity:1" id="path5434"/>
        </g>
        <g id="g5436" transform="translate(56.0483,217.1885)">
          <path d="M 0,0 H 163.478" style="fill:none;stroke:#000000;stroke-width:15;stroke-linecap:round;stroke-linejoin:round;stroke-miterlimit:10;stroke-dasharray:none;stroke-opacity:1" id="path5438"/>
        </g>
        <g id="g5440" transform="translate(56.0483,179.7256)">
          <path d="M 0,0 H 179.98" style="fill:none;stroke:#000000;stroke-width:15;stroke-linecap:round;stroke-linejoin:round;stroke-miterlimit:10;stroke-dasharray:60, 30;stroke-dashoffset:0;stroke-opacity:1" id="path5442"/>
        </g>
        <g id="g5444" transform="translate(313.625,10)">
          <path d="m 0,0 h -286.75 c -9.182,0 -16.625,7.443 -16.625,16.625 v 458.75 c 0,9.182 7.443,16.625 16.625,16.625 H 0 c 9.182,0 16.625,-7.443 16.625,-16.625 V 16.625 C 16.625,7.443 9.182,0 0,0 Z" style="fill:none;stroke:#000000;stroke-width:15;stroke-linecap:round;stroke-linejoin:round;stroke-miterlimit:10;stroke-dasharray:none;stroke-opacity:1" id="path5446"/>
        </g>
        <g id="g5448" transform="translate(57.0996,102.2109)">
          <path d="m 0,0 27.475,-40.854 c 2.376,-3.534 7.337,-4.133 10.486,-1.267 l 80.888,73.613" style="fill:none;stroke:#000000;stroke-width:15;stroke-linecap:round;stroke-linejoin:round;stroke-miterlimit:10;stroke-dasharray:175, 30;stroke-dashoffset:0;stroke-opacity:1" id="path5450"/>
        </g>
      </g>
    </g>
  </g></g>
</svg>
