<?xml version="1.0" encoding="UTF-8"?>
<svg xmlns="http://www.w3.org/2000/svg" viewBox="0 0 64 64" width="512" height="512"><g id="_01-Internet_Security" data-name="01-Internet Security"><path d="M31.60645,49.53809A23.13566,23.13566,0,0,1,28,49.975V39.02563a23.60422,23.60422,0,0,1,2.834.3,1.0002,1.0002,0,1,0,.332-1.97265,25.58805,25.58805,0,0,0-3.166-.327V28H38.98059c-.01782.74152-.04809,1.49054-.10461,2.24658a.99987.99987,0,0,0,1.99414.14942c.06073-.80591.0924-1.60492.11053-2.396H51a1,1,0,0,0,1-1A25,25,0,1,0,9.83521,45.15063c.00885.01026.01135.0235.02075.03345.01568.01673.03741.02228.054.03772A24.90255,24.90255,0,0,0,27,52a25.20181,25.20181,0,0,0,5.00488-.502,1,1,0,0,0-.39843-1.96Zm-11.37568-.557A22.981,22.981,0,0,1,12.09485,44.497a23.15411,23.15411,0,0,1,3.6167-2.5365A20.69953,20.69953,0,0,0,20.23077,48.98108Zm-2.72314-7.93482A22.67056,22.67056,0,0,1,26,39.02637V49.91394C22.55084,49.36542,19.51245,46.01184,17.50763,41.04626ZM26,37.02625a24.68535,24.68535,0,0,0-9.17883,2.13427A39.12867,39.12867,0,0,1,15.01324,28H26ZM28,4.08606c3.44354.54761,6.4776,3.89136,8.48248,8.84363A22.86938,22.86938,0,0,1,28,14.95288Zm5.76923.93286a22.98028,22.98028,0,0,1,8.12011,4.47089,23.01415,23.01415,0,0,1-3.6101,2.52643A20.67813,20.67813,0,0,0,33.76923,5.01892ZM26,4.08606V14.95288a22.86936,22.86936,0,0,1-8.48248-2.02325C19.5224,7.97736,22.55646,4.63367,26,4.08606ZM15.72076,12.01617A23.01837,23.01837,0,0,1,12.1109,9.48962a22.98144,22.98144,0,0,1,8.11987-4.4707A20.677,20.677,0,0,0,15.72076,12.01617ZM26,16.95288V26H15.01324a39.10832,39.10832,0,0,1,1.8172-11.18811A24.86411,24.86411,0,0,0,26,16.95288Zm2,0a24.86411,24.86411,0,0,0,9.16956-2.141A39.10832,39.10832,0,0,1,38.98676,26H28ZM49.97852,26H40.98627a40.73055,40.73055,0,0,0-1.99665-12.08881,25.01918,25.01918,0,0,0,4.37183-3.05206A22.92249,22.92249,0,0,1,49.97852,26ZM10.63873,10.859a25.014,25.014,0,0,0,4.37171,3.05218A40.73058,40.73058,0,0,0,13.01373,26H4.02148A22.92214,22.92214,0,0,1,10.63873,10.859ZM4.02148,28h8.99225a40.75007,40.75007,0,0,0,1.99005,12.07025,25.13213,25.13213,0,0,0-4.37786,3.05792A22.92214,22.92214,0,0,1,4.02148,28ZM61,34a23.36246,23.36246,0,0,1-12.41309-3.80957,1.00278,1.00278,0,0,0-1.17382,0A23.36246,23.36246,0,0,1,35,34a1,1,0,0,0-1,1V45c0,12.36963,13.55469,16.90674,13.69141,16.95117a.99951.99951,0,0,0,.61718,0C48.44531,61.90674,62,57.36963,62,45V35A1,1,0,0,0,61,34ZM60,45c0,9.92188-10.08936,14.21387-12,14.937C46.08936,59.21387,36,54.92188,36,45V35.97754a25.35366,25.35366,0,0,0,12-3.77539,25.35366,25.35366,0,0,0,12,3.77539ZM46,49.58594l8.293-8.293A.99989.99989,0,0,1,55.707,42.707l-9,9a.99963.99963,0,0,1-1.41406,0l-5-5A.99989.99989,0,0,1,41.707,45.293Z"/></g></svg>
